<?xml version="1.0" encoding="UTF-8" standalone="no"?>


<svg




   xmlns="http://www.w3.org/2000/svg"


   width="402.24066mm"
   height="196.06894mm"
   viewBox="0 0 402.24067 196.06894"
   version="1.1"
   id="svg8"

   >
  <defs
     id="defs2" />

  <metadata
     id="metadata5">

  </metadata>
  <g

     id="layer9"

     transform="translate(88.680038,21.122931)">
    <path
       style="opacity:1;fill:#f4fffd;fill-opacity:1;stroke:none;stroke-width:7.4083333;stroke-linecap:butt;stroke-linejoin:miter;stroke-miterlimit:7;stroke-dasharray:none;stroke-opacity:1;paint-order:stroke fill markers"
       d="M -67.624302,-21.122931 H 292.50489 c 11.66487,0 21.05573,9.390859 21.05573,21.05573702 V 153.89027 c 0,11.66488 -9.39086,21.05574 -21.05573,21.05574 H -67.624302 c -11.664878,0 -21.055736,-9.39086 -21.055736,-21.05574 V -0.06719398 c 0,-11.66487802 9.390858,-21.05573702 21.055736,-21.05573702 z"
       id="rect932" />
  </g>
  <g

     id="layer4"

     style="display:inline"
     transform="translate(88.680038,21.122931)">
    <path
       style="fill:#000000;fill-opacity:1;stroke:none;stroke-width:0.26458332px;stroke-linecap:butt;stroke-linejoin:miter;stroke-opacity:1"
       d="m 96.175893,14.477757 9.763337,-26.122225 c 21.05593,7.855301 33.84975,36.850543 31.76321,63.679907 z"
       id="path847"

        />
  </g>
  <g

     id="layer2"

     style="display:inline"
     transform="translate(88.680038,21.122931)">
    <path
       style="opacity:1;fill:#000000;fill-opacity:1;stroke:#ffffff;stroke-width:7.4083333;stroke-linecap:butt;stroke-linejoin:miter;stroke-miterlimit:7;stroke-dasharray:none;stroke-opacity:1;paint-order:stroke fill markers"
       d="M 142.35261,78.998659 A 63.688984,63.688984 0 0 1 78.66363,142.68764 63.688984,63.688984 0 0 1 14.974646,78.998659 63.688984,63.688984 0 0 1 78.66363,15.309676 63.688984,63.688984 0 0 1 142.35261,78.998659 Z"
       id="path829"
        />
  </g>
  <g

     id="layer3"

     style="display:inline"
     transform="translate(88.680038,21.122931)">
    <path
       style="opacity:1;fill:#ffffff;fill-opacity:1;stroke:none;stroke-width:26.45833206;stroke-linecap:butt;stroke-linejoin:miter;stroke-miterlimit:7;stroke-dasharray:none;stroke-opacity:0.90733595"
       d="m 131.76295,61.323031 a 22.62344,22.62344 0 0 1 -22.62344,22.62344 22.62344,22.62344 0 0 1 -22.623436,-22.62344 22.62344,22.62344 0 0 1 22.623436,-22.62344 22.62344,22.62344 0 0 1 22.62344,22.62344 z"
       id="path832"
        />
  </g>
  <g

     id="g836"

     transform="translate(88.680038,21.122931)">
    <path
       style="opacity:1;fill:#ffffff;fill-opacity:0.99227798;stroke:none;stroke-width:26.45833206;stroke-linecap:butt;stroke-linejoin:miter;stroke-miterlimit:7;stroke-dasharray:none;stroke-opacity:0.90733595"
       d="M 70.817828,61.29941 A 22.741989,22.741989 0 0 1 48.075838,84.041399 22.741989,22.741989 0 0 1 25.333849,61.29941 22.741989,22.741989 0 0 1 48.075838,38.557421 22.741989,22.741989 0 0 1 70.817828,61.29941 Z"
       id="circle834"
        />
  </g>
  <g

     id="g840"

     transform="translate(88.680038,21.122931)">
    <path
       style="opacity:1;fill:#ffffff;fill-opacity:1;stroke:none;stroke-width:26.45833206;stroke-linecap:butt;stroke-linejoin:miter;stroke-miterlimit:7;stroke-dasharray:none;stroke-opacity:0.90733595"
       d="M 101.3601,114.13014 A 22.62344,22.62344 0 0 1 78.736666,136.75358 22.62344,22.62344 0 0 1 56.113226,114.13014 22.62344,22.62344 0 0 1 78.736666,91.506702 22.62344,22.62344 0 0 1 101.3601,114.13014 Z"
       id="circle838"
        />
  </g>
  <g

     id="layer5"

     style="display:inline"
     transform="translate(88.680038,21.122931)">
    <path
       style="opacity:1;fill:#ffffff;fill-opacity:1;stroke:none;stroke-width:5.54062128;stroke-linecap:butt;stroke-linejoin:miter;stroke-miterlimit:7;stroke-dasharray:none;stroke-opacity:1;paint-order:stroke fill markers"
       d="m 82.61895,79.000994 a 3.9898503,3.9898503 0 0 1 -3.989851,3.98985 3.9898503,3.9898503 0 0 1 -3.98985,-3.98985 3.9898503,3.9898503 0 0 1 3.98985,-3.98985 3.9898503,3.9898503 0 0 1 3.989851,3.98985 z"
       id="path850"
        />
  </g>
  <g

     id="layer8"

     style="display:inline"
     transform="translate(88.680038,21.122931)">
    <g
       aria-label="F     I    N   D"
       style="font-style:normal;font-weight:normal;font-size:42.33333206px;line-height:1.25;font-family:sans-serif;letter-spacing:0px;word-spacing:0px;display:inline;fill:#d10000;fill-opacity:1;stroke:none;stroke-width:0.26458332"
       id="text862"
       transform="matrix(1.0106199,0,0,1,-5.9583536,-5.6126601)">
      <path
         d="M -0.83397047,108.22711 H -16.398911 v 8.68164 h 13.3738599 v 3.63802 H -16.398911 v 14.8208 h -4.092774 v -30.77848 h 19.65771453 z"
         style="font-size:42.33333206px;fill:#000000;fill-opacity:1;stroke-width:0.26458332"
         id="path843"
          />
      <path
         d="m 179.10337,135.36757 h -5.06429 l -14.59343,-27.5332 v 27.5332 h -3.82405 v -30.77848 h 6.34586 l 13.31185,25.13541 v -25.13541 h 3.82406 z"
         style="font-size:42.33333206px;fill:#000000;fill-opacity:1;stroke-width:0.26458332"
         id="path848"
          />
      <path
         d="m 257.94093,120.00933 q 0,4.19613 -1.83968,7.60677 -1.81901,3.41065 -4.85759,5.29167 -2.1084,1.30225 -4.71289,1.88102 -2.58382,0.57878 -6.82129,0.57878 h -7.77213 v -30.77848 h 7.68945 q 4.50618,0 7.15202,0.66146 2.6665,0.64078 4.50618,1.77766 3.14193,1.96371 4.89893,5.22966 1.757,3.26595 1.757,7.75146 z m -4.27881,-0.062 q 0,-3.61735 -1.26091,-6.09782 -1.2609,-2.48047 -3.76204,-3.90673 -1.81901,-1.03353 -3.8654,-1.42627 -2.04638,-0.41342 -4.89892,-0.41342 h -3.84473 v 23.75049 h 3.84473 q 2.95589,0 5.14697,-0.43408 2.21175,-0.43408 4.05143,-1.6123 2.29443,-1.46762 3.43132,-3.8654 1.15755,-2.39779 1.15755,-5.99447 z"
         style="font-size:42.33333206px;fill:#000000;fill-opacity:1;stroke-width:0.26458332"
         id="path851"
          />
    </g>
    <path
       d="M 84.773216,129.78036 H 72.489841 v -3.14193 h 4.073568 V 102.1438 h -4.073568 v -3.141918 h 12.283375 v 3.141918 h -4.073569 v 24.49463 h 4.073569 z"
       style="font-style:normal;font-weight:normal;font-size:42.33333206px;line-height:1.25;font-family:sans-serif;letter-spacing:0px;word-spacing:0px;display:inline;fill:#d10000;fill-opacity:1;stroke:none;stroke-width:0.26598454"
       id="path845"
        />
  </g>
  <g

     id="layer7"

     transform="translate(88.680038,21.122931)">
    <g
       aria-label="M          V I E"
       style="font-style:normal;font-weight:normal;font-size:42.33333206px;line-height:1.25;font-family:sans-serif;letter-spacing:0px;word-spacing:0px;display:inline;fill:#000000;fill-opacity:1;stroke:none;stroke-width:0.26458332"
       id="text858"
       transform="translate(-5.9868374,-5.6126601)">
      <path
         d="M 6.7301067,82.487137 H 2.6373334 V 55.966793 l -8.557617,18.045409 H -8.3594111 L -16.855016,55.966793 v 26.520344 h -3.824056 V 51.708655 h 5.581054 l 8.2062175,17.135904 7.9374998,-17.135904 h 5.6844074 z"
         style="font-size:42.33333206px;stroke-width:0.26458332"
         id="path834"
          />
      <path
         d="M 188.13505,51.708655 176.9316,82.487137 h -5.45703 L 160.27112,51.708655 h 4.38216 l 9.65316,27.078449 9.65316,-27.078449 z"
         style="font-size:42.33333206px;stroke-width:0.26458332"
         id="path836"
          />
      <path
         d="M 218.54146,82.487137 H 206.38717 V 79.34521 h 4.03076 V 54.850582 h -4.03076 v -3.141927 h 12.15429 v 3.141927 H 214.5107 V 79.34521 h 4.03076 z"
         style="font-size:42.33333206px;stroke-width:0.26458332"
         id="path838"
          />
      <path
         d="M 260.70945,82.487137 H 240.43162 V 51.708655 h 20.27783 v 3.63802 h -16.18506 v 8.433594 h 16.18506 v 3.638021 h -16.18506 v 11.430826 h 16.18506 z"
         style="font-size:42.33333206px;stroke-width:0.26458332"
         id="path840"
          />
    </g>
  </g>
</svg>
